<?xml version="1.0" encoding="UTF-8"?>
<svg width="300px" height="210px" viewBox="0 0 300 210" version="1.1" xmlns="http://www.w3.org/2000/svg" xmlns:xlink="http://www.w3.org/1999/xlink">
    <!-- Generator: Sketch 48.1 (47250) - http://www.bohemiancoding.com/sketch -->
    <title>Project management</title>
    <desc>Created with Sketch.</desc>
    <defs></defs>
    <g id="Page-10" stroke="none" stroke-width="1" fill="none" fill-rule="evenodd">
        <g id="Project-management">
            <rect id="Rectangle-5" fill="#638CB3" x="-9" y="-8" width="319" height="226"></rect>
            <g id="PMP" transform="translate(104.000000, 57.000000)" fill="#FFFFFF">
                <g id="bullseye">
                    <path d="M80.2640125,30.9018363 C79.5282132,31.2796222 79.244953,32.169093 79.6312853,32.8886152 C82.6615674,38.5325976 84.2633229,44.9091611 84.2633229,51.3289474 C84.2633229,61.9406128 80.0373668,71.9173624 72.3639498,79.4210302 C64.6905329,86.924882 54.4882759,91.0571688 43.6363636,91.0571688 C32.7844514,91.0571688 22.5821944,86.924698 14.9087774,79.4210302 C7.2353605,71.9175463 3.00940439,61.9407967 3.00940439,51.3289474 C3.00940439,40.717098 7.2353605,30.7405323 14.9087774,23.2368645 C22.5821944,15.7331967 32.7844514,11.600726 43.6363636,11.600726 C50.2036364,11.600726 56.7263323,13.1679675 62.4993103,16.1330539 C63.2349216,16.5113916 64.1447022,16.2342137 64.5310345,15.5146915 C64.9173668,14.7953532 64.6342947,13.9056985 63.8984953,13.5279125 C57.6957367,10.3419299 50.689279,8.65789474 43.6363636,8.65789474 C31.9805643,8.65789474 21.0225705,13.0964199 12.7807524,21.155915 C4.53893417,29.21541 0,39.9311781 0,51.3289474 C0,62.7267166 4.53893417,73.4424847 12.7807524,81.5019798 C21.0225705,89.5614748 31.9805643,94 43.6363636,94 C55.292163,94 66.2501567,89.5614748 74.4919749,81.5019798 C82.7337931,73.4424847 87.2727273,62.7269005 87.2727273,51.3289474 C87.2727273,44.4344456 85.5517241,37.5846381 82.2957367,31.5205665 C81.9094044,30.8010443 80.9998119,30.5240503 80.2640125,30.9018363 Z" id="Shape" fill-rule="nonzero"></path>
                    <path d="M62.1511237,26.1015192 C62.600751,25.4173741 62.4064032,24.5010523 61.7165895,24.0549993 C56.1520553,20.455335 49.6845398,18.5526316 43.012987,18.5526316 C24.1077696,18.5526316 8.72727273,33.8108603 8.72727273,52.5657895 C8.72727273,71.3207187 24.1077696,86.5789474 43.012987,86.5789474 C61.9182044,86.5789474 77.2987013,71.3207187 77.2987013,52.5657895 C77.2987013,45.9498606 75.3820553,39.5357923 71.7561547,34.0167878 C71.3065274,33.3326427 70.3830491,33.1391004 69.6934218,33.5853382 C69.0036081,34.0312064 68.8088876,34.9475282 69.258515,35.6316733 C72.5680181,40.6693178 74.3173348,46.5249417 74.3173348,52.5657895 C74.3173348,69.6899356 60.2743535,83.6212815 43.012987,83.6212815 C25.7516206,83.6212815 11.7086392,69.6899356 11.7086392,52.5657895 C11.7086392,35.4416433 25.7516206,21.5102975 43.012987,21.5102975 C49.104664,21.5102975 55.0092603,23.2470019 60.0882044,26.5324142 C60.7776454,26.9784672 61.70131,26.7854795 62.1511237,26.1015192 Z" id="Shape" fill-rule="nonzero"></path>
                    <path d="M57.0408128,31.8835113 C57.481696,31.1854958 57.2685837,30.2650625 56.5649748,29.8278706 C52.508136,27.3065134 47.8219206,25.9736842 43.012987,25.9736842 C28.9199496,25.9736842 17.4545455,37.3481298 17.4545455,51.3289474 C17.4545455,65.3097649 28.9199496,76.6842105 43.012987,76.6842105 C57.1060244,76.6842105 68.5714286,65.3097649 68.5714286,51.3289474 C68.5714286,46.5582427 67.2282949,41.9096535 64.6869213,37.8854377 C64.2460382,37.1874222 63.3182292,36.9758176 62.6148083,37.4133824 C61.9111994,37.8507606 61.6980871,38.7710075 62.1389702,39.469023 C64.3798442,43.0180141 65.5645531,47.1190415 65.5645531,51.3289474 C65.5645531,63.6650286 55.4479206,73.7012384 43.012987,73.7012384 C30.5780535,73.7012384 20.4614209,63.6650286 20.4614209,51.3289474 C20.4614209,38.9928661 30.5780535,28.9566563 43.012987,28.9566563 C47.2568159,28.9566563 51.3908938,30.1319474 54.9685118,32.3553802 C55.6723086,32.7929449 56.5999297,32.5815268 57.0408128,31.8835113 Z" id="Shape" fill-rule="nonzero"></path>
                    <path d="M51.0705266,39.569924 C51.4400472,38.8158861 51.1235065,37.9075872 50.3634262,37.5411938 C48.0623377,36.4311983 45.5893034,35.8684211 43.012987,35.8684211 C33.7323188,35.8684211 26.1818182,43.3588985 26.1818182,52.5657895 C26.1818182,61.7726805 33.7323188,69.2631579 43.012987,69.2631579 C52.2936553,69.2631579 59.8441558,61.7726805 59.8441558,52.5657895 C59.8441558,50.0124203 59.2778253,47.560943 58.161039,45.2794753 C57.7917096,44.5252476 56.8763235,44.2104643 56.1162432,44.5772371 C55.3561629,44.9436305 55.0392397,45.8517397 55.4083778,46.6057777 C56.3210862,48.4703804 56.7839433,50.4757723 56.7839433,52.5657895 C56.7839433,60.0987693 50.6063306,66.2272727 43.012987,66.2272727 C35.4196434,66.2272727 29.2420307,60.0987693 29.2420307,52.5657895 C29.2420307,45.0328097 35.4196434,38.9043062 43.012987,38.9043062 C45.121856,38.9043062 47.1448477,39.3642428 49.0253483,40.2712135 C49.785046,40.6377967 50.7008146,40.3237723 51.0705266,39.569924 Z" id="Shape" fill-rule="nonzero"></path>
                    <path d="M42.7500305,46.2514798 C43.5647118,46.0792882 44.0848937,45.284212 43.9114369,44.4754729 C43.7381686,43.6669209 42.9376278,43.1509075 42.1223808,43.3223505 C38.665123,44.0522933 36.1558442,47.1320902 36.1558442,50.6449865 C36.1558442,54.7730936 39.5390058,58.1315789 43.697444,58.1315789 C47.2644321,58.1315789 50.3717598,55.6168326 51.0859493,52.1522248 C51.2529957,51.3421755 50.7267806,50.5508426 49.9107795,50.3852018 C49.0942128,50.2203096 48.2976313,50.7417507 48.1307734,51.5519872 C47.702222,53.6293294 45.8379385,55.136942 43.697444,55.136942 C41.2024942,55.136942 39.1724841,53.1217385 39.1724841,50.6449865 C39.1724841,48.5369493 40.6770332,46.6892583 42.7500305,46.2514798 Z" id="Shape" fill-rule="nonzero"></path>
                    <path d="M95.8839742,9.77620055 C95.6481654,9.22423089 95.092548,8.86413023 94.476169,8.86413023 L86.8571448,8.86413023 L86.8571448,1.47745019 C86.8571448,0.880052437 86.4859079,0.341378795 85.9165763,0.11257638 C85.3472447,-0.116226034 84.6916277,0.0102708614 84.25601,0.432604293 L65.2084496,18.8993044 C64.9227362,19.1764896 64.7621653,19.5521023 64.7621653,19.9439656 L64.7621653,28.1959953 L41.5892843,50.6622133 C40.9940481,51.2392977 40.9940481,52.1744514 41.5892843,52.7515357 C41.8868072,53.0399856 42.2767108,53.1842105 42.6668048,53.1842105 C43.0568989,53.1842105 43.4468024,53.0399856 43.7443253,52.7515357 L66.9170158,30.2855024 L75.4286086,30.2855024 C75.8327979,30.2855024 76.2204157,30.1298281 76.5061291,29.8528276 L95.5536895,11.3861275 C95.9894976,10.9636094 96.119783,10.3281702 95.8839742,9.77620055 Z M74.797563,27.3308304 L69.9646255,27.3308304 L81.839446,15.8181355 C82.4346823,15.2410511 82.4346823,14.3058974 81.839446,13.728813 C81.2444002,13.152098 80.2796413,13.152098 79.6845955,13.728813 L67.8095845,25.2415079 L67.8095845,20.5559521 L83.8095352,5.04392398 L83.8095352,10.3414662 C83.8095352,11.1573251 84.4918188,11.8188023 85.33334,11.8188023 L90.7975136,11.8188023 L74.797563,27.3308304 Z" id="Shape" fill-rule="nonzero"></path>
                </g>
            </g>
        </g>
    </g>
</svg>