<?xml version="1.0" encoding="UTF-8"?>
<svg width="300px" height="210px" viewBox="0 0 300 210" version="1.1" xmlns="http://www.w3.org/2000/svg" xmlns:xlink="http://www.w3.org/1999/xlink">
    <!-- Generator: Sketch 48.1 (47250) - http://www.bohemiancoding.com/sketch -->
    <title>information security</title>
    <desc>Created with Sketch.</desc>
    <defs></defs>
    <g id="Page-10" stroke="none" stroke-width="1" fill="none" fill-rule="evenodd">
        <g id="information-security">
            <rect id="Rectangle-5" fill="#B36363" x="-9" y="-8" width="319" height="226"></rect>
            <g transform="translate(110.000000, 64.000000)" fill="#FFFFFF" id="keywords">
                <g>
                    <path d="M15.6375913,27.3333333 C19.6173877,27.3333333 22.8550725,24.1346967 22.8550725,20.2028986 C22.8550725,16.2711004 19.6173877,13.0724638 15.6375913,13.0724638 C11.6577949,13.0724638 8.42028986,16.2711004 8.42028986,20.2028986 C8.42028986,24.1346967 11.6579746,27.3333333 15.6375913,27.3333333 Z M15.6375913,15.7359227 C18.1308278,15.7359227 20.1590987,17.7397317 20.1590987,20.2028986 C20.1590987,22.6660654 18.1308278,24.6698744 15.6375913,24.6698744 C13.1443548,24.6698744 11.1162636,22.6660654 11.1162636,20.2028986 C11.1162636,17.7397317 13.1445345,15.7359227 15.6375913,15.7359227 Z" id="Shape" fill-rule="nonzero"></path>
                    <path d="M20.3968704,40.4057971 C28.8752579,40.4057971 36.4049701,35.2518715 39.4282984,27.4832885 L52.6403492,27.4832885 L57.9465377,32.7390157 C58.4637882,33.2513473 59.3024439,33.2513473 59.8195178,32.7390157 L64.5771982,28.0265803 L69.3348786,32.7390157 C69.5854687,32.9872228 69.9278889,33.1247074 70.2803751,33.1233081 C70.6348038,33.1208593 70.9733389,32.9777773 71.2205737,32.7262468 L82.6248083,21.1168392 C83.1219269,20.6106298 83.1254588,19.8056623 82.6329318,19.2954298 L76.8732441,13.3281408 C76.6233603,13.0692638 76.2775848,12.9228584 75.9159156,12.9228584 L39.687012,12.9225086 C38.1518605,9.29875576 35.6726253,6.19153247 32.4746433,3.89539871 C28.9254112,1.34703482 24.7489092,0 20.3968704,0 C9.1499831,0 0,9.06296781 0,20.2028986 C0,31.3428293 9.1499831,40.4057971 20.3968704,40.4057971 Z M20.3968704,2.62375306 C27.95007,2.62375306 34.8413866,7.47314838 37.5448991,14.6907432 C37.7375657,15.2049988 38.2329182,15.5462616 38.7867242,15.5462616 L75.3501011,15.5466115 L79.8358233,20.1939778 L70.2588304,29.9433194 L65.5140415,25.2436529 C65.2657471,24.9975449 64.9288014,24.8593606 64.5775514,24.8593606 C64.2263014,24.8593606 63.8893557,24.9975449 63.6410613,25.2436529 L58.8833809,29.9560883 L54.1257005,25.2436529 C53.8774061,24.9975449 53.5404604,24.8593606 53.1892104,24.8593606 L38.4971063,24.8593606 C37.9268769,24.8593606 37.4203987,25.2209137 37.2404471,25.7570339 C34.823727,32.9496157 28.0549682,37.782044 20.3968704,37.782044 C10.6106109,37.782044 2.64894421,29.8960919 2.64894421,20.2028986 C2.64894421,10.5097053 10.6106109,2.62375306 20.3968704,2.62375306 Z" id="Shape" fill-rule="nonzero"></path>
                    <path d="M39.8201726,21.3913043 L74.4551897,21.3913043 C75.188279,21.3913043 75.7826087,20.8592155 75.7826087,20.2028986 C75.7826087,19.5465816 75.188279,19.0144928 74.4551897,19.0144928 L39.8201726,19.0144928 C39.0870834,19.0144928 38.4927536,19.5465816 38.4927536,20.2028986 C38.4927536,20.8592155 39.0870834,21.3913043 39.8201726,21.3913043 Z" id="Shape" fill-rule="nonzero"></path>
                    <path d="M1.328,54.6666667 L26.3386667,54.6666667 C27.0720768,54.6666667 27.6666667,54.0862061 27.6666667,53.370224 L27.6666667,46.455863 C27.6666667,45.7398809 27.0720768,45.1594203 26.3386667,45.1594203 L1.328,45.1594203 C0.594589867,45.1594203 0,45.7398809 0,46.455863 L0,53.370224 C0,54.0862061 0.594589867,54.6666667 1.328,54.6666667 Z M2.656,47.7523057 L25.0106667,47.7523057 L25.0106667,52.0737813 L2.656,52.0737813 L2.656,47.7523057 Z" id="Shape" fill-rule="nonzero"></path>
                    <path d="M81.6414322,45.1594203 L65.112191,45.1594203 C64.3618993,45.1594203 63.7536232,45.7398809 63.7536232,46.455863 L63.7536232,53.370224 C63.7536232,54.0862061 64.3618993,54.6666667 65.112191,54.6666667 L81.6414322,54.6666667 C82.3917239,54.6666667 83,54.0862061 83,53.370224 L83,46.455863 C83,45.7398809 82.3917239,45.1594203 81.6414322,45.1594203 Z M80.2828645,52.0737813 L66.4707587,52.0737813 L66.4707587,47.7523057 L80.2828645,47.7523057 L80.2828645,52.0737813 Z" id="Shape" fill-rule="nonzero"></path>
                    <path d="M61.3478261,53.370224 L61.3478261,46.455863 C61.3478261,45.7398809 60.7561491,45.1594203 60.0263319,45.1594203 L31.393958,45.1594203 C30.6641408,45.1594203 30.0724638,45.7398809 30.0724638,46.455863 L30.0724638,53.370224 C30.0724638,54.0862061 30.6641408,54.6666667 31.393958,54.6666667 L60.0263319,54.6666667 C60.7561491,54.6666667 61.3478261,54.0862061 61.3478261,53.370224 Z M58.7048377,52.0737813 L32.7154521,52.0737813 L32.7154521,47.7523057 L58.7048377,47.7523057 L58.7048377,52.0737813 Z" id="Shape" fill-rule="nonzero"></path>
                    <path d="M1.35856777,67.7391304 L17.887809,67.7391304 C18.6381007,67.7391304 19.2463768,67.1586698 19.2463768,66.4426877 L19.2463768,59.5283267 C19.2463768,58.8123447 18.6381007,58.2318841 17.887809,58.2318841 L1.35856777,58.2318841 C0.608276078,58.2318841 0,58.8123447 0,59.5283267 L0,66.4426877 C0,67.1586698 0.608276078,67.7391304 1.35856777,67.7391304 Z M2.71713555,60.8247694 L16.5292413,60.8247694 L16.5292413,65.1462451 L2.71713555,65.1462451 L2.71713555,60.8247694 Z" id="Shape" fill-rule="nonzero"></path>
                    <path d="M81.6668513,58.2318841 L49.4490907,58.2318841 C48.7128371,58.2318841 48.115942,58.8123447 48.115942,59.5283267 L48.115942,66.4426877 C48.115942,67.1586698 48.7128371,67.7391304 49.4490907,67.7391304 L81.6668513,67.7391304 C82.4031049,67.7391304 83,67.1586698 83,66.4426877 L83,59.5283267 C83,58.8123447 82.4031049,58.2318841 81.6668513,58.2318841 Z M80.3337026,65.1462451 L50.7822395,65.1462451 L50.7822395,60.8247694 L80.3337026,60.8247694 L80.3337026,65.1462451 Z" id="Shape" fill-rule="nonzero"></path>
                    <path d="M22.9644269,58.2318841 C22.2397133,58.2318841 21.6521739,58.8123447 21.6521739,59.5283267 L21.6521739,66.4426877 C21.6521739,67.1586698 22.2397133,67.7391304 22.9644269,67.7391304 L44.397892,67.7391304 C45.1226055,67.7391304 45.7101449,67.1586698 45.7101449,66.4426877 L45.7101449,59.5283267 C45.7101449,58.8123447 45.1226055,58.2318841 44.397892,58.2318841 L22.9644269,58.2318841 Z M43.085639,65.1462451 L24.2766798,65.1462451 L24.2766798,60.8247694 L43.085639,60.8247694 L43.085639,65.1462451 Z" id="Shape" fill-rule="nonzero"></path>
                    <path d="M31.1704114,72.4927536 L1.30784943,72.4927536 C0.585567785,72.4927536 0,73.0732142 0,73.7891963 L0,80.7035573 C0,81.4195394 0.585567785,82 1.30784943,82 L31.1704114,82 C31.8926931,82 32.4782609,81.4195394 32.4782609,80.7035573 L32.4782609,73.7891963 C32.4782609,73.0732142 31.8926931,72.4927536 31.1704114,72.4927536 Z M29.862562,79.4071146 L2.61569886,79.4071146 L2.61569886,75.085639 L29.862562,75.085639 L29.862562,79.4071146 Z" id="Shape" fill-rule="nonzero"></path>
                    <path d="M81.672,72.4927536 L56.6613333,72.4927536 C55.9279232,72.4927536 55.3333333,73.0732142 55.3333333,73.7891963 L55.3333333,80.7035573 C55.3333333,81.4195394 55.9279232,82 56.6613333,82 L81.672,82 C82.4054101,82 83,81.4195394 83,80.7035573 L83,73.7891963 C83,73.0732142 82.4054101,72.4927536 81.672,72.4927536 Z M80.344,79.4071146 L57.9893333,79.4071146 L57.9893333,75.085639 L80.344,75.085639 L80.344,79.4071146 Z" id="Shape" fill-rule="nonzero"></path>
                    <path d="M51.632107,72.4927536 L37.3823857,72.4927536 C36.6669634,72.4927536 36.0869565,73.0732142 36.0869565,73.7891963 L36.0869565,80.7035573 C36.0869565,81.4195394 36.6669634,82 37.3823857,82 L51.632107,82 C52.3475294,82 52.9275362,81.4195394 52.9275362,80.7035573 L52.9275362,73.7891963 C52.9275362,73.0732142 52.3475294,72.4927536 51.632107,72.4927536 Z M50.3366778,79.4071146 L38.6778149,79.4071146 L38.6778149,75.085639 L50.3366778,75.085639 L50.3366778,79.4071146 Z" id="Shape" fill-rule="nonzero"></path>
                </g>
            </g>
        </g>
    </g>
</svg>